<svg xmlns="http://www.w3.org/2000/svg" viewBox="0 0 292.59 342.78"><defs><style>.cls-1{fill:#c53186;}.cls-2{fill:#c13187;}.cls-3{fill:#ba3188;}.cls-4{fill:#b83187;}.cls-5{fill:#b93188;}.cls-6{fill:#ad3187;}.cls-7{fill:#b33186;}.cls-8{fill:#b93187;}.cls-9{fill:#c13287;}.cls-10{fill:#aa3187;}.cls-11{fill:#c03386;}.cls-12{fill:#000;}.cls-13{fill:#a23088;}.cls-14{fill:#b43088;}</style></defs><g id="Livello_2" data-name="Livello 2"><g id="Livello_1-2" data-name="Livello 1"><path class="cls-1" d="M184.6,56.91c-22-5.22-44.14-6.24-66.28-1.28-44.63,10-77.28,35.69-98.25,76.2-9.79,18.92-14.43,39.22-14.9,60.49a19.64,19.64,0,0,1-.24,3,2.37,2.37,0,0,1-2.77,2.22A2.28,2.28,0,0,1,0,195.15c0-3.16-.09-6.33.15-9.48C5,121.66,47.32,69.59,109.06,52.46a140.84,140.84,0,0,1,77.8.21c1.18,1.49,5.24.83,3.94,3.73C189.8,58.64,186.77,57.23,184.6,56.91Z"/><path class="cls-2" d="M185.7,90.88c-17.08-5.2-34.39-8.13-52.3-5.42-36,5.45-63.39,23.66-81.77,55.11-11,18.76-15.29,39.17-14.44,60.8.08,2.22,1.61,5.86-2.16,6-3.38.13-2.9-3.45-3-5.83C29.81,150.89,58.1,106.81,105.1,87.47c19-7.8,38.66-9.21,58.81-7.35,3.79.35,6.84,3.55,10.9,2.58,3.11,1.92,6.8,2.17,10.1,3.56C188.05,87.57,188.29,88.8,185.7,90.88Z"/><path class="cls-3" d="M65.81,210.85c-3.25-11.34-2.48-22.75.21-34,7.14-29.7,25-50.59,53.83-60.67,29.29-10.25,56.71-5.28,81.23,14.11a30.2,30.2,0,0,1,2.58,2.35c1.18,1.18,1.69,2.56.48,4-1.34,1.57-2.75.72-3.92-.27a93.48,93.48,0,0,0-9.47-7.3A78.77,78.77,0,0,0,70,206.7C70.5,211.78,70.37,211.91,65.81,210.85Z"/><path class="cls-4" d="M79.73,200.74c-.13-11.77,1.42-23.19,6.36-34,15.59-34.17,57.88-49.43,91.18-32.81a14.12,14.12,0,0,1,1.76.94c1.64,1.16,4.68,1.74,3.08,4.64-1.4,2.53-3.51.76-5.22-.06-28.27-13.52-58.85-7.06-78.3,17C90.81,166,86,177.15,85.7,189.8c-.63,3-.71,6,.79,8.89-1,5.5-1.47,5.89-5.77,4.94A3.09,3.09,0,0,1,79.73,200.74Z"/><path class="cls-5" d="M202.43,117.94c-12.11-7.49-24.85-13.41-39.12-15.44-16.6-2.37-32.85-1.08-48.61,4.9-.78.3-1.56.59-2.36.83-1.92.56-4.33,2.55-5.43-.67-1-3,1.93-3.55,3.83-4.19,5.66-1.91,11.32-4.05,17.15-5.25,25.75-5.27,49.92-.87,72.46,12.6A20.45,20.45,0,0,1,205.8,115C206.69,118.24,205,118.54,202.43,117.94Z"/><path class="cls-6" d="M185.7,90.88c1.92-2.44.86-2.74-1.69-3.83-3.07-1.31-6.85-1.45-9.2-4.35,27.1,6,48.59,20.78,65.45,42.55a111.59,111.59,0,0,1,14.6,25.44c.71,1.68,1.82,3.61-.48,4.76s-3.42-.48-4.19-2.31C237.56,123.21,215.73,102.8,185.7,90.88Z"/><path class="cls-7" d="M184.6,56.91c1.63-.1,3.27-.18,4.9-.33.24,0,.45-.4.7-.65-.33-1.88-2.77-1.63-3.34-3.26,27.07,6.77,49.58,21.16,68.67,41.19,3.09,3.24,5.84,6.8,8.66,10.29,1.24,1.53,2.88,3.49.61,5.14s-3.59-.67-4.77-2.18a142.39,142.39,0,0,0-44.6-37.69C205.63,64.06,195.19,60.31,184.6,56.91Z"/><path class="cls-8" d="M156.18,63.42a129.71,129.71,0,0,1,68.09,24.33c.41.29.83.56,1.21.88,1.27,1.08,2.94,2.21,1.69,4.08-1.38,2.06-3.13,1.15-4.74,0a135.54,135.54,0,0,0-24.19-13.82,125.54,125.54,0,0,0-45.41-10.32c-1.17,0-2.33-.08-3.5-.11-1.91,0-3.93-.18-3.86-2.74.07-2.31,2-2.28,3.71-2.3C151.34,63.4,153.5,63.42,156.18,63.42Z"/><path class="cls-9" d="M15.65,196.7c.44-13.68,2-27.19,6.08-40.31a132,132,0,0,1,16.2-34.11c1.15-1.72,2.56-4.33,5-2.44s.24,3.81-.9,5.59c-11.42,17.81-18.59,37.1-20.35,58.28a167.16,167.16,0,0,0,.1,25H22a1.9,1.9,0,0,1,0,2.17c-3.52,1-3.22-1.82-3.62-3.79-.56-2.66.65-5.69-1.67-8a4.32,4.32,0,0,1-1.09-1A1.59,1.59,0,0,1,15.65,196.7Z"/><path class="cls-10" d="M202.43,117.94c1.81-.21,3.19-.91,3.37-3,10.94,6.28,18.86,15.67,25.79,25.86a95.67,95.67,0,0,1,11.55,23.72c.62,1.87.79,3.84-1.39,4.68s-3-1.06-3.48-2.62C231.57,146.52,219.18,130.63,202.43,117.94Z"/><path class="cls-11" d="M92.2,81.28c-2,.28-2.86-.41-3.33-1.6a2.27,2.27,0,0,1,1.17-3,104,104,0,0,1,27.63-9.82,2.29,2.29,0,0,1,2.75,1.64,2.15,2.15,0,0,1-1.18,2.94A153.77,153.77,0,0,0,92.2,81.28Z"/><path class="cls-11" d="M203.33,309.93c2-.28,2.86.4,3.33,1.6a2.25,2.25,0,0,1-1.17,3,103.49,103.49,0,0,1-27.63,9.82,2.28,2.28,0,0,1-2.75-1.64,2.15,2.15,0,0,1,1.18-2.93A155.38,155.38,0,0,0,203.33,309.93Z"/><circle class="cls-4" cx="148.41" cy="194.9" r="44.89"/><circle class="cls-12" cx="148.41" cy="194.9" r="14.46"/><path class="cls-1" d="M84.25,323.09c20.53,9.46,42,14.85,64.72,14.37,45.72-1,82.81-19.68,111.38-55.24,13.35-16.61,21.92-35.59,26.59-56.35a20,20,0,0,1,.82-2.87,2.36,2.36,0,0,1,3.16-1.62,2.28,2.28,0,0,1,1.62,2.74c-.6,3.1-1.17,6.22-2,9.26-17.44,61.78-69.19,104.45-133.09,109a140.86,140.86,0,0,1-76.23-15.61c-.86-1.7-5-1.85-3.12-4.43C79.5,320.36,82.19,322.34,84.25,323.09Z"/><path class="cls-2" d="M89.89,289.57c15.72,8.48,32.11,14.77,50.2,15.66,36.34,1.78,66.81-10.64,91.07-37.82,14.46-16.22,22.73-35.38,26.19-56.74.35-2.2-.42-6.07,3.3-5.47,3.34.53,2.16,4,1.79,6.3-7.86,50.11-44.31,87.71-94.21,97.37-20.13,3.89-39.72,1.37-59.1-4.44-3.65-1.09-6-4.84-10.18-4.69-2.66-2.49-6.23-3.47-9.19-5.48S86.94,291.09,89.89,289.57Z"/><path class="cls-3" d="M231.16,195.71c.94,11.75-2.07,22.79-6.93,33.24-12.87,27.7-34.54,44.63-64.77,48.81-30.74,4.26-56.63-6-76.83-29.91A28.54,28.54,0,0,1,80.57,245c-.92-1.39-1.15-2.84.31-4,1.63-1.28,2.84-.17,3.8,1a90.63,90.63,0,0,0,7.83,9A78.75,78.75,0,0,0,226.27,199C226.75,193.87,226.91,193.77,231.16,195.71Z"/><path class="cls-4" d="M215.52,202.86c-2.2,11.56-6,22.45-13,32.1-22,30.42-66.51,37-95.86,14.11a12.44,12.44,0,0,1-1.54-1.26c-1.38-1.46-4.25-2.64-2.1-5.16,1.87-2.2,3.58-.05,5.1,1.09,25,18.85,56.29,18.57,80.12-1.17,9.53-7.89,16.4-17.83,19.25-30.17,1.22-2.86,1.89-5.77,1-8.87,2.09-5.19,2.61-5.48,6.64-3.7A3.11,3.11,0,0,1,215.52,202.86Z"/><path class="cls-5" d="M78.86,259.73c10.39,9.74,21.7,18.06,35.28,22.88,15.81,5.61,32,7.56,48.63,4.82.82-.14,1.64-.27,2.47-.34,2-.18,4.75-1.65,5.19,1.73.39,3.11-2.6,3.09-4.58,3.34-5.93.75-11.9,1.74-17.85,1.75-26.28.07-49.1-9-68.53-26.69A20.58,20.58,0,0,1,75,262C74.74,258.59,76.5,258.65,78.86,259.73Z"/><path class="cls-6" d="M89.89,289.57c-2.36,2-1.37,2.52.91,4.08,2.75,1.9,6.43,2.79,8.15,6.09-25.36-11.3-43.51-30-55.72-54.67a112,112,0,0,1-9.29-27.82c-.36-1.79-1.06-3.89,1.42-4.57s3.25,1.14,3.65,3.09C45.46,247.61,62.82,271.94,89.89,289.57Z"/><path class="cls-7" d="M84.25,323.09c-1.62-.23-3.24-.48-4.87-.66-.24,0-.51.31-.82.51,0,1.9,2.4,2.14,2.63,3.85-25.19-12-44.4-30.56-59.15-54C19.65,269,17.66,265,15.59,261c-.91-1.76-2.13-4,.42-5.17s3.39,1.37,4.24,3.08A142.69,142.69,0,0,0,56.5,304.72C65.05,311.91,74.54,317.65,84.25,323.09Z"/><path class="cls-8" d="M113.4,322.33A129.66,129.66,0,0,1,51.47,285c-.34-.36-.7-.71-1-1.1-1-1.31-2.45-2.75-.85-4.34,1.76-1.74,3.3-.51,4.65.94a135.16,135.16,0,0,0,21,18.34A125.79,125.79,0,0,0,117.7,318c1.13.28,2.27.53,3.4.8,1.87.42,3.83.95,3.25,3.45-.53,2.24-2.43,1.83-4.09,1.51C118.14,323.31,116,322.86,113.4,322.33Z"/><path class="cls-9" d="M277.54,219.51c-3.15,13.32-7.31,26.26-14,38.3A131.7,131.7,0,0,1,241,288c-1.47,1.46-3.37,3.74-5.41,1.4s.53-3.78,2-5.3C252.27,269,263.11,251.45,269,231a165.26,165.26,0,0,0,4.85-24.55l-.19,0a1.9,1.9,0,0,1,.39-2.13c3.65-.25,2.8,2.43,2.81,4.43,0,2.72-1.77,5.45.05,8.17a4.24,4.24,0,0,1,.87,1.19A1.64,1.64,0,0,1,277.54,219.51Z"/><path class="cls-10" d="M78.86,259.73C77,259.58,75.55,260,75,262c-9.47-8.33-15.38-19.1-20.15-30.46A95.29,95.29,0,0,1,48.18,206c-.24-2,0-3.93,2.29-4.32s2.69,1.63,2.89,3.26C56,226,65,244,78.86,259.73Z"/><path class="cls-5" d="M189.51,280.57c12.47-6.88,23.87-15.08,32.64-26.52,10.21-13.31,17-28.1,19.57-44.78.12-.82.25-1.64.44-2.45.44-2-.11-5,3.24-4.4,3.08.58,2.14,3.42,1.77,5.38-1.11,5.88-2,11.86-3.83,17.53-8,25-23.72,43.93-46.52,57a20.2,20.2,0,0,1-6.37,2.67C187.16,284.13,187.75,282.48,189.51,280.57Z"/><rect class="cls-13" x="241.43" y="181.53" width="12.86" height="39.31" transform="translate(118.95 -90.87) rotate(27.12)"/><path class="cls-13" d="M242.79,183.83c2-3.25,3.4-6,5-8.14s3.47-1.93,5.2-.76c3.47,2.35,4.77.71,6.15-2.45,2.53-5.77,5.22-11.5,8.28-17a40.39,40.39,0,0,0,5.1-21.38c-.28-11.76-.72-23.56.33-35.32,1.52.74,1.3,2.55,2.36,3.86.11-9.76-.13-19.32.15-28.87.06-2.1-.86-5.18,2.87-5.6-.09,21.13-.6,42.26-.08,63.37a52.1,52.1,0,0,1-6.77,28c-2.95,5.18-5.17,10.79-8,16.07-1.3,2.45-1.29,3.87,1.54,4.89,3.43,1.25,3.8,3.49,2.27,6.72C263,196.08,259.05,205,255,214c-1.5,2.62-.88,6.31-4.08,8.07l-4.78-.09c-1.3-.67-3-.47-4-1.91a42.06,42.06,0,0,0-10.23-5.12c2.62-3.55,5.93-1.55,8.89-2.33,6.35.93,6.27.89,9.28-4.91s5.33-12.21,8.52-18.06c1.43-2.63.72-4.33-1.89-5.63s-4.93-2.42-6.8.91c-3.59,6.39-11.4,33.21-18,30a6.8,6.8,0,0,1-2.56-1.81c-.77-1.41.27-4.4-.43-6.89,3.25-5.21,6.37-10.5,9.8-15.58"/><path class="cls-14" d="M277.88,70.69c-2,1.47-1.2,3.65-1.21,5.52-.08,11.1,0,22.19,0,33.52-5.59-1.12-3.29-5.5-4.13-8.43-.06-8.48-.21-17-.14-25.42,0-2.87-.52-4.76-3.33-6.44-9.12-5.48-9-16.89.22-22.17,2.45-1.4,3.28-2.82,3.13-5.42-.16-2.82,0-5.65,0-8.48s.44-5.39-3.83-5.26c-2.13.07-2.78-2-2.77-4,0-6.66,0-13.31,0-20,0-2.47,1.05-3.74,3.57-3.67a4,4,0,0,0,.49,0c14.07-1.1,14.07-1.1,14.11,13,0,3.32-.05,6.65,0,10,.08,2.85-.52,5-4,5-2.09,0-2.38,1.32-2.36,3,0,2.33.1,4.66,0,7-.21,4.24-.25,7.74,4.79,10.09,4.49,2.09,6,7.14,5.06,12.07C286.5,65.72,283.44,69.51,277.88,70.69Z"/></g></g></svg>